<?xml version="1.0" encoding="utf-8" standalone="no"?>
<!DOCTYPE svg PUBLIC "-//W3C//DTD SVG 1.1//EN"
  "http://www.w3.org/Graphics/SVG/1.1/DTD/svg11.dtd">
<svg xmlns:xlink="http://www.w3.org/1999/xlink" width="396.452562pt" height="298.240031pt" viewBox="0 0 396.452562 298.240031" xmlns="http://www.w3.org/2000/svg" version="1.1">
 <metadata>
  <rdf:RDF xmlns:dc="http://purl.org/dc/elements/1.1/" xmlns:cc="http://creativecommons.org/ns#" xmlns:rdf="http://www.w3.org/1999/02/22-rdf-syntax-ns#">
   <cc:Work>
    <dc:type rdf:resource="http://purl.org/dc/dcmitype/StillImage"/>
    <dc:date>2022-06-24T11:51:09.645951</dc:date>
    <dc:format>image/svg+xml</dc:format>
    <dc:creator>
     <cc:Agent>
      <dc:title>Matplotlib v3.5.1, https://matplotlib.org/</dc:title>
     </cc:Agent>
    </dc:creator>
   </cc:Work>
  </rdf:RDF>
 </metadata>
 <defs>
  <style type="text/css">*{stroke-linejoin: round; stroke-linecap: butt}</style>
 </defs>
 <g id="figure_1">
  <g id="patch_1">
   <path d="M 0 298.240031 
L 396.452562 298.240031 
L 396.452562 0 
L 0 0 
z
" style="fill: #ffffff"/>
  </g>
  <g id="axes_1">
   <g id="patch_2">
    <path d="M 47.252563 170.28 
L 214.652563 170.28 
L 214.652563 7.2 
L 47.252563 7.2 
z
" style="fill: #ffffff"/>
   </g>
   <g id="matplotlib.axis_1">
    <g id="xtick_1">
     <g id="line2d_1">
      <defs>
       <path id="m7ad6b8b9bc" d="M 0 0 
L 0 4.8 
" style="stroke: #262626"/>
      </defs>
      <g>
       <use xlink:href="#m7ad6b8b9bc" x="54.861653" y="170.28" style="fill: #262626; stroke: #262626"/>
      </g>
     </g>
     <g id="text_1">
      <!-- rt610 -->
      <g style="fill: #262626" transform="translate(44.833778 184.878875)scale(0.088 -0.088)">
       <defs>
        <path id="ArialMT-72" d="M 416 0 
L 416 3319 
L 922 3319 
L 922 2816 
Q 1116 3169 1280 3281 
Q 1444 3394 1641 3394 
Q 1925 3394 2219 3213 
L 2025 2691 
Q 1819 2813 1613 2813 
Q 1428 2813 1281 2702 
Q 1134 2591 1072 2394 
Q 978 2094 978 1738 
L 978 0 
L 416 0 
z
" transform="scale(0.015625)"/>
        <path id="ArialMT-74" d="M 1650 503 
L 1731 6 
Q 1494 -44 1306 -44 
Q 1000 -44 831 53 
Q 663 150 594 308 
Q 525 466 525 972 
L 525 2881 
L 113 2881 
L 113 3319 
L 525 3319 
L 525 4141 
L 1084 4478 
L 1084 3319 
L 1650 3319 
L 1650 2881 
L 1084 2881 
L 1084 941 
Q 1084 700 1114 631 
Q 1144 563 1211 522 
Q 1278 481 1403 481 
Q 1497 481 1650 503 
z
" transform="scale(0.015625)"/>
        <path id="ArialMT-36" d="M 3184 3459 
L 2625 3416 
Q 2550 3747 2413 3897 
Q 2184 4138 1850 4138 
Q 1581 4138 1378 3988 
Q 1113 3794 959 3422 
Q 806 3050 800 2363 
Q 1003 2672 1297 2822 
Q 1591 2972 1913 2972 
Q 2475 2972 2870 2558 
Q 3266 2144 3266 1488 
Q 3266 1056 3080 686 
Q 2894 316 2569 119 
Q 2244 -78 1831 -78 
Q 1128 -78 684 439 
Q 241 956 241 2144 
Q 241 3472 731 4075 
Q 1159 4600 1884 4600 
Q 2425 4600 2770 4297 
Q 3116 3994 3184 3459 
z
M 888 1484 
Q 888 1194 1011 928 
Q 1134 663 1356 523 
Q 1578 384 1822 384 
Q 2178 384 2434 671 
Q 2691 959 2691 1453 
Q 2691 1928 2437 2201 
Q 2184 2475 1800 2475 
Q 1419 2475 1153 2201 
Q 888 1928 888 1484 
z
" transform="scale(0.015625)"/>
        <path id="ArialMT-31" d="M 2384 0 
L 1822 0 
L 1822 3584 
Q 1619 3391 1289 3197 
Q 959 3003 697 2906 
L 697 3450 
Q 1169 3672 1522 3987 
Q 1875 4303 2022 4600 
L 2384 4600 
L 2384 0 
z
" transform="scale(0.015625)"/>
        <path id="ArialMT-30" d="M 266 2259 
Q 266 3072 433 3567 
Q 600 4063 929 4331 
Q 1259 4600 1759 4600 
Q 2128 4600 2406 4451 
Q 2684 4303 2865 4023 
Q 3047 3744 3150 3342 
Q 3253 2941 3253 2259 
Q 3253 1453 3087 958 
Q 2922 463 2592 192 
Q 2263 -78 1759 -78 
Q 1097 -78 719 397 
Q 266 969 266 2259 
z
M 844 2259 
Q 844 1131 1108 757 
Q 1372 384 1759 384 
Q 2147 384 2411 759 
Q 2675 1134 2675 2259 
Q 2675 3391 2411 3762 
Q 2147 4134 1753 4134 
Q 1366 4134 1134 3806 
Q 844 3388 844 2259 
z
" transform="scale(0.015625)"/>
       </defs>
       <use xlink:href="#ArialMT-72"/>
       <use xlink:href="#ArialMT-74" x="33.300781"/>
       <use xlink:href="#ArialMT-36" x="61.083984"/>
       <use xlink:href="#ArialMT-31" x="116.699219"/>
       <use xlink:href="#ArialMT-30" x="172.314453"/>
      </g>
     </g>
    </g>
    <g id="xtick_2">
     <g id="line2d_2">
      <g>
       <use xlink:href="#m7ad6b8b9bc" x="105.588926" y="170.28" style="fill: #262626; stroke: #262626"/>
      </g>
     </g>
     <g id="text_2">
      <!-- rt1014 -->
      <g style="fill: #262626" transform="translate(93.114239 184.878875)scale(0.088 -0.088)">
       <defs>
        <path id="ArialMT-34" d="M 2069 0 
L 2069 1097 
L 81 1097 
L 81 1613 
L 2172 4581 
L 2631 4581 
L 2631 1613 
L 3250 1613 
L 3250 1097 
L 2631 1097 
L 2631 0 
L 2069 0 
z
M 2069 1613 
L 2069 3678 
L 634 1613 
L 2069 1613 
z
" transform="scale(0.015625)"/>
       </defs>
       <use xlink:href="#ArialMT-72"/>
       <use xlink:href="#ArialMT-74" x="33.300781"/>
       <use xlink:href="#ArialMT-31" x="61.083984"/>
       <use xlink:href="#ArialMT-30" x="116.699219"/>
       <use xlink:href="#ArialMT-31" x="172.314453"/>
       <use xlink:href="#ArialMT-34" x="227.929688"/>
      </g>
     </g>
    </g>
    <g id="xtick_3">
     <g id="line2d_3">
      <g>
       <use xlink:href="#m7ad6b8b9bc" x="156.316199" y="170.28" style="fill: #262626; stroke: #262626"/>
      </g>
     </g>
     <g id="text_3">
      <!-- rt1418 -->
      <g style="fill: #262626" transform="translate(143.841511 184.878875)scale(0.088 -0.088)">
       <defs>
        <path id="ArialMT-38" d="M 1131 2484 
Q 781 2613 612 2850 
Q 444 3088 444 3419 
Q 444 3919 803 4259 
Q 1163 4600 1759 4600 
Q 2359 4600 2725 4251 
Q 3091 3903 3091 3403 
Q 3091 3084 2923 2848 
Q 2756 2613 2416 2484 
Q 2838 2347 3058 2040 
Q 3278 1734 3278 1309 
Q 3278 722 2862 322 
Q 2447 -78 1769 -78 
Q 1091 -78 675 323 
Q 259 725 259 1325 
Q 259 1772 486 2073 
Q 713 2375 1131 2484 
z
M 1019 3438 
Q 1019 3113 1228 2906 
Q 1438 2700 1772 2700 
Q 2097 2700 2305 2904 
Q 2513 3109 2513 3406 
Q 2513 3716 2298 3927 
Q 2084 4138 1766 4138 
Q 1444 4138 1231 3931 
Q 1019 3725 1019 3438 
z
M 838 1322 
Q 838 1081 952 856 
Q 1066 631 1291 507 
Q 1516 384 1775 384 
Q 2178 384 2440 643 
Q 2703 903 2703 1303 
Q 2703 1709 2433 1975 
Q 2163 2241 1756 2241 
Q 1359 2241 1098 1978 
Q 838 1716 838 1322 
z
" transform="scale(0.015625)"/>
       </defs>
       <use xlink:href="#ArialMT-72"/>
       <use xlink:href="#ArialMT-74" x="33.300781"/>
       <use xlink:href="#ArialMT-31" x="61.083984"/>
       <use xlink:href="#ArialMT-34" x="116.699219"/>
       <use xlink:href="#ArialMT-31" x="172.314453"/>
       <use xlink:href="#ArialMT-38" x="227.929688"/>
      </g>
     </g>
    </g>
    <g id="xtick_4">
     <g id="line2d_4">
      <g>
       <use xlink:href="#m7ad6b8b9bc" x="207.043472" y="170.28" style="fill: #262626; stroke: #262626"/>
      </g>
     </g>
     <g id="text_4">
      <!-- rt1822 -->
      <g style="fill: #262626" transform="translate(194.568784 184.878875)scale(0.088 -0.088)">
       <defs>
        <path id="ArialMT-32" d="M 3222 541 
L 3222 0 
L 194 0 
Q 188 203 259 391 
Q 375 700 629 1000 
Q 884 1300 1366 1694 
Q 2113 2306 2375 2664 
Q 2638 3022 2638 3341 
Q 2638 3675 2398 3904 
Q 2159 4134 1775 4134 
Q 1369 4134 1125 3890 
Q 881 3647 878 3216 
L 300 3275 
Q 359 3922 746 4261 
Q 1134 4600 1788 4600 
Q 2447 4600 2831 4234 
Q 3216 3869 3216 3328 
Q 3216 3053 3103 2787 
Q 2991 2522 2730 2228 
Q 2469 1934 1863 1422 
Q 1356 997 1212 845 
Q 1069 694 975 541 
L 3222 541 
z
" transform="scale(0.015625)"/>
       </defs>
       <use xlink:href="#ArialMT-72"/>
       <use xlink:href="#ArialMT-74" x="33.300781"/>
       <use xlink:href="#ArialMT-31" x="61.083984"/>
       <use xlink:href="#ArialMT-38" x="116.699219"/>
       <use xlink:href="#ArialMT-32" x="172.314453"/>
       <use xlink:href="#ArialMT-32" x="227.929688"/>
      </g>
     </g>
    </g>
    <g id="text_5">
     <!-- Time of Day -->
     <g style="fill: #262626" transform="translate(114.895531 194.995687)scale(0.06 -0.06)">
      <defs>
       <path id="ArialMT-54" d="M 1659 0 
L 1659 4041 
L 150 4041 
L 150 4581 
L 3781 4581 
L 3781 4041 
L 2266 4041 
L 2266 0 
L 1659 0 
z
" transform="scale(0.015625)"/>
       <path id="ArialMT-69" d="M 425 3934 
L 425 4581 
L 988 4581 
L 988 3934 
L 425 3934 
z
M 425 0 
L 425 3319 
L 988 3319 
L 988 0 
L 425 0 
z
" transform="scale(0.015625)"/>
       <path id="ArialMT-6d" d="M 422 0 
L 422 3319 
L 925 3319 
L 925 2853 
Q 1081 3097 1340 3245 
Q 1600 3394 1931 3394 
Q 2300 3394 2536 3241 
Q 2772 3088 2869 2813 
Q 3263 3394 3894 3394 
Q 4388 3394 4653 3120 
Q 4919 2847 4919 2278 
L 4919 0 
L 4359 0 
L 4359 2091 
Q 4359 2428 4304 2576 
Q 4250 2725 4106 2815 
Q 3963 2906 3769 2906 
Q 3419 2906 3187 2673 
Q 2956 2441 2956 1928 
L 2956 0 
L 2394 0 
L 2394 2156 
Q 2394 2531 2256 2718 
Q 2119 2906 1806 2906 
Q 1569 2906 1367 2781 
Q 1166 2656 1075 2415 
Q 984 2175 984 1722 
L 984 0 
L 422 0 
z
" transform="scale(0.015625)"/>
       <path id="ArialMT-65" d="M 2694 1069 
L 3275 997 
Q 3138 488 2766 206 
Q 2394 -75 1816 -75 
Q 1088 -75 661 373 
Q 234 822 234 1631 
Q 234 2469 665 2931 
Q 1097 3394 1784 3394 
Q 2450 3394 2872 2941 
Q 3294 2488 3294 1666 
Q 3294 1616 3291 1516 
L 816 1516 
Q 847 969 1125 678 
Q 1403 388 1819 388 
Q 2128 388 2347 550 
Q 2566 713 2694 1069 
z
M 847 1978 
L 2700 1978 
Q 2663 2397 2488 2606 
Q 2219 2931 1791 2931 
Q 1403 2931 1139 2672 
Q 875 2413 847 1978 
z
" transform="scale(0.015625)"/>
       <path id="ArialMT-20" transform="scale(0.015625)"/>
       <path id="ArialMT-6f" d="M 213 1659 
Q 213 2581 725 3025 
Q 1153 3394 1769 3394 
Q 2453 3394 2887 2945 
Q 3322 2497 3322 1706 
Q 3322 1066 3130 698 
Q 2938 331 2570 128 
Q 2203 -75 1769 -75 
Q 1072 -75 642 372 
Q 213 819 213 1659 
z
M 791 1659 
Q 791 1022 1069 705 
Q 1347 388 1769 388 
Q 2188 388 2466 706 
Q 2744 1025 2744 1678 
Q 2744 2294 2464 2611 
Q 2184 2928 1769 2928 
Q 1347 2928 1069 2612 
Q 791 2297 791 1659 
z
" transform="scale(0.015625)"/>
       <path id="ArialMT-66" d="M 556 0 
L 556 2881 
L 59 2881 
L 59 3319 
L 556 3319 
L 556 3672 
Q 556 4006 616 4169 
Q 697 4388 901 4523 
Q 1106 4659 1475 4659 
Q 1713 4659 2000 4603 
L 1916 4113 
Q 1741 4144 1584 4144 
Q 1328 4144 1222 4034 
Q 1116 3925 1116 3625 
L 1116 3319 
L 1763 3319 
L 1763 2881 
L 1116 2881 
L 1116 0 
L 556 0 
z
" transform="scale(0.015625)"/>
       <path id="ArialMT-44" d="M 494 0 
L 494 4581 
L 2072 4581 
Q 2606 4581 2888 4516 
Q 3281 4425 3559 4188 
Q 3922 3881 4101 3404 
Q 4281 2928 4281 2316 
Q 4281 1794 4159 1391 
Q 4038 988 3847 723 
Q 3656 459 3429 307 
Q 3203 156 2883 78 
Q 2563 0 2147 0 
L 494 0 
z
M 1100 541 
L 2078 541 
Q 2531 541 2789 625 
Q 3047 709 3200 863 
Q 3416 1078 3536 1442 
Q 3656 1806 3656 2325 
Q 3656 3044 3420 3430 
Q 3184 3816 2847 3947 
Q 2603 4041 2063 4041 
L 1100 4041 
L 1100 541 
z
" transform="scale(0.015625)"/>
       <path id="ArialMT-61" d="M 2588 409 
Q 2275 144 1986 34 
Q 1697 -75 1366 -75 
Q 819 -75 525 192 
Q 231 459 231 875 
Q 231 1119 342 1320 
Q 453 1522 633 1644 
Q 813 1766 1038 1828 
Q 1203 1872 1538 1913 
Q 2219 1994 2541 2106 
Q 2544 2222 2544 2253 
Q 2544 2597 2384 2738 
Q 2169 2928 1744 2928 
Q 1347 2928 1158 2789 
Q 969 2650 878 2297 
L 328 2372 
Q 403 2725 575 2942 
Q 747 3159 1072 3276 
Q 1397 3394 1825 3394 
Q 2250 3394 2515 3294 
Q 2781 3194 2906 3042 
Q 3031 2891 3081 2659 
Q 3109 2516 3109 2141 
L 3109 1391 
Q 3109 606 3145 398 
Q 3181 191 3288 0 
L 2700 0 
Q 2613 175 2588 409 
z
M 2541 1666 
Q 2234 1541 1622 1453 
Q 1275 1403 1131 1340 
Q 988 1278 909 1158 
Q 831 1038 831 891 
Q 831 666 1001 516 
Q 1172 366 1500 366 
Q 1825 366 2078 508 
Q 2331 650 2450 897 
Q 2541 1088 2541 1459 
L 2541 1666 
z
" transform="scale(0.015625)"/>
       <path id="ArialMT-79" d="M 397 -1278 
L 334 -750 
Q 519 -800 656 -800 
Q 844 -800 956 -737 
Q 1069 -675 1141 -563 
Q 1194 -478 1313 -144 
Q 1328 -97 1363 -6 
L 103 3319 
L 709 3319 
L 1400 1397 
Q 1534 1031 1641 628 
Q 1738 1016 1872 1384 
L 2581 3319 
L 3144 3319 
L 1881 -56 
Q 1678 -603 1566 -809 
Q 1416 -1088 1222 -1217 
Q 1028 -1347 759 -1347 
Q 597 -1347 397 -1278 
z
" transform="scale(0.015625)"/>
      </defs>
      <use xlink:href="#ArialMT-54"/>
      <use xlink:href="#ArialMT-69" x="57.333984"/>
      <use xlink:href="#ArialMT-6d" x="79.550781"/>
      <use xlink:href="#ArialMT-65" x="162.851562"/>
      <use xlink:href="#ArialMT-20" x="218.466797"/>
      <use xlink:href="#ArialMT-6f" x="246.25"/>
      <use xlink:href="#ArialMT-66" x="301.865234"/>
      <use xlink:href="#ArialMT-20" x="329.648438"/>
      <use xlink:href="#ArialMT-44" x="357.431641"/>
      <use xlink:href="#ArialMT-61" x="429.648438"/>
      <use xlink:href="#ArialMT-79" x="485.263672"/>
     </g>
    </g>
   </g>
   <g id="matplotlib.axis_2">
    <g id="ytick_1">
     <g id="line2d_5">
      <path d="M 47.252563 169.576662 
L 214.652563 169.576662 
" clip-path="url(#p724d75d002)" style="fill: none; stroke: #cccccc; stroke-width: 0.5; stroke-linecap: round"/>
     </g>
     <g id="line2d_6">
      <defs>
       <path id="mfca6288487" d="M 0 0 
L -4.8 0 
" style="stroke: #262626"/>
      </defs>
      <g>
       <use xlink:href="#mfca6288487" x="47.252563" y="169.576662" style="fill: #262626; stroke: #262626"/>
      </g>
     </g>
     <g id="text_6">
      <!-- −0.03 -->
      <g style="fill: #262626" transform="translate(16.687187 172.7261)scale(0.088 -0.088)">
       <defs>
        <path id="ArialMT-2212" d="M 3381 1997 
L 356 1997 
L 356 2522 
L 3381 2522 
L 3381 1997 
z
" transform="scale(0.015625)"/>
        <path id="ArialMT-2e" d="M 581 0 
L 581 641 
L 1222 641 
L 1222 0 
L 581 0 
z
" transform="scale(0.015625)"/>
        <path id="ArialMT-33" d="M 269 1209 
L 831 1284 
Q 928 806 1161 595 
Q 1394 384 1728 384 
Q 2125 384 2398 659 
Q 2672 934 2672 1341 
Q 2672 1728 2419 1979 
Q 2166 2231 1775 2231 
Q 1616 2231 1378 2169 
L 1441 2663 
Q 1497 2656 1531 2656 
Q 1891 2656 2178 2843 
Q 2466 3031 2466 3422 
Q 2466 3731 2256 3934 
Q 2047 4138 1716 4138 
Q 1388 4138 1169 3931 
Q 950 3725 888 3313 
L 325 3413 
Q 428 3978 793 4289 
Q 1159 4600 1703 4600 
Q 2078 4600 2393 4439 
Q 2709 4278 2876 4000 
Q 3044 3722 3044 3409 
Q 3044 3113 2884 2869 
Q 2725 2625 2413 2481 
Q 2819 2388 3044 2092 
Q 3269 1797 3269 1353 
Q 3269 753 2831 336 
Q 2394 -81 1725 -81 
Q 1122 -81 723 278 
Q 325 638 269 1209 
z
" transform="scale(0.015625)"/>
       </defs>
       <use xlink:href="#ArialMT-2212"/>
       <use xlink:href="#ArialMT-30" x="58.398438"/>
       <use xlink:href="#ArialMT-2e" x="114.013672"/>
       <use xlink:href="#ArialMT-30" x="141.796875"/>
       <use xlink:href="#ArialMT-33" x="197.412109"/>
      </g>
     </g>
    </g>
    <g id="ytick_2">
     <g id="line2d_7">
      <path d="M 47.252563 151.073616 
L 214.652563 151.073616 
" clip-path="url(#p724d75d002)" style="fill: none; stroke: #cccccc; stroke-width: 0.5; stroke-linecap: round"/>
     </g>
     <g id="line2d_8">
      <g>
       <use xlink:href="#mfca6288487" x="47.252563" y="151.073616" style="fill: #262626; stroke: #262626"/>
      </g>
     </g>
     <g id="text_7">
      <!-- −0.02 -->
      <g style="fill: #262626" transform="translate(16.687187 154.223054)scale(0.088 -0.088)">
       <use xlink:href="#ArialMT-2212"/>
       <use xlink:href="#ArialMT-30" x="58.398438"/>
       <use xlink:href="#ArialMT-2e" x="114.013672"/>
       <use xlink:href="#ArialMT-30" x="141.796875"/>
       <use xlink:href="#ArialMT-32" x="197.412109"/>
      </g>
     </g>
    </g>
    <g id="ytick_3">
     <g id="line2d_9">
      <path d="M 47.252563 132.57057 
L 214.652563 132.57057 
" clip-path="url(#p724d75d002)" style="fill: none; stroke: #cccccc; stroke-width: 0.5; stroke-linecap: round"/>
     </g>
     <g id="line2d_10">
      <g>
       <use xlink:href="#mfca6288487" x="47.252563" y="132.57057" style="fill: #262626; stroke: #262626"/>
      </g>
     </g>
     <g id="text_8">
      <!-- −0.01 -->
      <g style="fill: #262626" transform="translate(16.687187 135.720008)scale(0.088 -0.088)">
       <use xlink:href="#ArialMT-2212"/>
       <use xlink:href="#ArialMT-30" x="58.398438"/>
       <use xlink:href="#ArialMT-2e" x="114.013672"/>
       <use xlink:href="#ArialMT-30" x="141.796875"/>
       <use xlink:href="#ArialMT-31" x="197.412109"/>
      </g>
     </g>
    </g>
    <g id="ytick_4">
     <g id="line2d_11">
      <path d="M 47.252563 114.067524 
L 214.652563 114.067524 
" clip-path="url(#p724d75d002)" style="fill: none; stroke: #cccccc; stroke-width: 0.5; stroke-linecap: round"/>
     </g>
     <g id="line2d_12">
      <g>
       <use xlink:href="#mfca6288487" x="47.252563" y="114.067524" style="fill: #262626; stroke: #262626"/>
      </g>
     </g>
     <g id="text_9">
      <!-- 0.00 -->
      <g style="fill: #262626" transform="translate(21.826937 117.216962)scale(0.088 -0.088)">
       <use xlink:href="#ArialMT-30"/>
       <use xlink:href="#ArialMT-2e" x="55.615234"/>
       <use xlink:href="#ArialMT-30" x="83.398438"/>
       <use xlink:href="#ArialMT-30" x="139.013672"/>
      </g>
     </g>
    </g>
    <g id="ytick_5">
     <g id="line2d_13">
      <path d="M 47.252563 95.564478 
L 214.652563 95.564478 
" clip-path="url(#p724d75d002)" style="fill: none; stroke: #cccccc; stroke-width: 0.5; stroke-linecap: round"/>
     </g>
     <g id="line2d_14">
      <g>
       <use xlink:href="#mfca6288487" x="47.252563" y="95.564478" style="fill: #262626; stroke: #262626"/>
      </g>
     </g>
     <g id="text_10">
      <!-- 0.01 -->
      <g style="fill: #262626" transform="translate(21.826937 98.713916)scale(0.088 -0.088)">
       <use xlink:href="#ArialMT-30"/>
       <use xlink:href="#ArialMT-2e" x="55.615234"/>
       <use xlink:href="#ArialMT-30" x="83.398438"/>
       <use xlink:href="#ArialMT-31" x="139.013672"/>
      </g>
     </g>
    </g>
    <g id="ytick_6">
     <g id="line2d_15">
      <path d="M 47.252563 77.061432 
L 214.652563 77.061432 
" clip-path="url(#p724d75d002)" style="fill: none; stroke: #cccccc; stroke-width: 0.5; stroke-linecap: round"/>
     </g>
     <g id="line2d_16">
      <g>
       <use xlink:href="#mfca6288487" x="47.252563" y="77.061432" style="fill: #262626; stroke: #262626"/>
      </g>
     </g>
     <g id="text_11">
      <!-- 0.02 -->
      <g style="fill: #262626" transform="translate(21.826937 80.21087)scale(0.088 -0.088)">
       <use xlink:href="#ArialMT-30"/>
       <use xlink:href="#ArialMT-2e" x="55.615234"/>
       <use xlink:href="#ArialMT-30" x="83.398438"/>
       <use xlink:href="#ArialMT-32" x="139.013672"/>
      </g>
     </g>
    </g>
    <g id="ytick_7">
     <g id="line2d_17">
      <path d="M 47.252563 58.558387 
L 214.652563 58.558387 
" clip-path="url(#p724d75d002)" style="fill: none; stroke: #cccccc; stroke-width: 0.5; stroke-linecap: round"/>
     </g>
     <g id="line2d_18">
      <g>
       <use xlink:href="#mfca6288487" x="47.252563" y="58.558387" style="fill: #262626; stroke: #262626"/>
      </g>
     </g>
     <g id="text_12">
      <!-- 0.03 -->
      <g style="fill: #262626" transform="translate(21.826937 61.707824)scale(0.088 -0.088)">
       <use xlink:href="#ArialMT-30"/>
       <use xlink:href="#ArialMT-2e" x="55.615234"/>
       <use xlink:href="#ArialMT-30" x="83.398438"/>
       <use xlink:href="#ArialMT-33" x="139.013672"/>
      </g>
     </g>
    </g>
    <g id="ytick_8">
     <g id="line2d_19">
      <path d="M 47.252563 40.055341 
L 214.652563 40.055341 
" clip-path="url(#p724d75d002)" style="fill: none; stroke: #cccccc; stroke-width: 0.5; stroke-linecap: round"/>
     </g>
     <g id="line2d_20">
      <g>
       <use xlink:href="#mfca6288487" x="47.252563" y="40.055341" style="fill: #262626; stroke: #262626"/>
      </g>
     </g>
     <g id="text_13">
      <!-- 0.04 -->
      <g style="fill: #262626" transform="translate(21.826937 43.204778)scale(0.088 -0.088)">
       <use xlink:href="#ArialMT-30"/>
       <use xlink:href="#ArialMT-2e" x="55.615234"/>
       <use xlink:href="#ArialMT-30" x="83.398438"/>
       <use xlink:href="#ArialMT-34" x="139.013672"/>
      </g>
     </g>
    </g>
    <g id="ytick_9">
     <g id="line2d_21">
      <path d="M 47.252563 21.552295 
L 214.652563 21.552295 
" clip-path="url(#p724d75d002)" style="fill: none; stroke: #cccccc; stroke-width: 0.5; stroke-linecap: round"/>
     </g>
     <g id="line2d_22">
      <g>
       <use xlink:href="#mfca6288487" x="47.252563" y="21.552295" style="fill: #262626; stroke: #262626"/>
      </g>
     </g>
     <g id="text_14">
      <!-- 0.05 -->
      <g style="fill: #262626" transform="translate(21.826937 24.701732)scale(0.088 -0.088)">
       <defs>
        <path id="ArialMT-35" d="M 266 1200 
L 856 1250 
Q 922 819 1161 601 
Q 1400 384 1738 384 
Q 2144 384 2425 690 
Q 2706 997 2706 1503 
Q 2706 1984 2436 2262 
Q 2166 2541 1728 2541 
Q 1456 2541 1237 2417 
Q 1019 2294 894 2097 
L 366 2166 
L 809 4519 
L 3088 4519 
L 3088 3981 
L 1259 3981 
L 1013 2750 
Q 1425 3038 1878 3038 
Q 2478 3038 2890 2622 
Q 3303 2206 3303 1553 
Q 3303 931 2941 478 
Q 2500 -78 1738 -78 
Q 1113 -78 717 272 
Q 322 622 266 1200 
z
" transform="scale(0.015625)"/>
       </defs>
       <use xlink:href="#ArialMT-30"/>
       <use xlink:href="#ArialMT-2e" x="55.615234"/>
       <use xlink:href="#ArialMT-30" x="83.398438"/>
       <use xlink:href="#ArialMT-35" x="139.013672"/>
      </g>
     </g>
    </g>
    <g id="text_15">
     <!-- Coefficient -->
     <g style="fill: #262626" transform="translate(11.494687 102.860625)rotate(-90)scale(0.06 -0.06)">
      <defs>
       <path id="ArialMT-43" d="M 3763 1606 
L 4369 1453 
Q 4178 706 3683 314 
Q 3188 -78 2472 -78 
Q 1731 -78 1267 223 
Q 803 525 561 1097 
Q 319 1669 319 2325 
Q 319 3041 592 3573 
Q 866 4106 1370 4382 
Q 1875 4659 2481 4659 
Q 3169 4659 3637 4309 
Q 4106 3959 4291 3325 
L 3694 3184 
Q 3534 3684 3231 3912 
Q 2928 4141 2469 4141 
Q 1941 4141 1586 3887 
Q 1231 3634 1087 3207 
Q 944 2781 944 2328 
Q 944 1744 1114 1308 
Q 1284 872 1643 656 
Q 2003 441 2422 441 
Q 2931 441 3284 734 
Q 3638 1028 3763 1606 
z
" transform="scale(0.015625)"/>
       <path id="ArialMT-63" d="M 2588 1216 
L 3141 1144 
Q 3050 572 2676 248 
Q 2303 -75 1759 -75 
Q 1078 -75 664 370 
Q 250 816 250 1647 
Q 250 2184 428 2587 
Q 606 2991 970 3192 
Q 1334 3394 1763 3394 
Q 2303 3394 2647 3120 
Q 2991 2847 3088 2344 
L 2541 2259 
Q 2463 2594 2264 2762 
Q 2066 2931 1784 2931 
Q 1359 2931 1093 2626 
Q 828 2322 828 1663 
Q 828 994 1084 691 
Q 1341 388 1753 388 
Q 2084 388 2306 591 
Q 2528 794 2588 1216 
z
" transform="scale(0.015625)"/>
       <path id="ArialMT-6e" d="M 422 0 
L 422 3319 
L 928 3319 
L 928 2847 
Q 1294 3394 1984 3394 
Q 2284 3394 2536 3286 
Q 2788 3178 2913 3003 
Q 3038 2828 3088 2588 
Q 3119 2431 3119 2041 
L 3119 0 
L 2556 0 
L 2556 2019 
Q 2556 2363 2490 2533 
Q 2425 2703 2258 2804 
Q 2091 2906 1866 2906 
Q 1506 2906 1245 2678 
Q 984 2450 984 1813 
L 984 0 
L 422 0 
z
" transform="scale(0.015625)"/>
      </defs>
      <use xlink:href="#ArialMT-43"/>
      <use xlink:href="#ArialMT-6f" x="72.216797"/>
      <use xlink:href="#ArialMT-65" x="127.832031"/>
      <use xlink:href="#ArialMT-66" x="183.447266"/>
      <use xlink:href="#ArialMT-66" x="209.480469"/>
      <use xlink:href="#ArialMT-69" x="237.263672"/>
      <use xlink:href="#ArialMT-63" x="259.480469"/>
      <use xlink:href="#ArialMT-69" x="309.480469"/>
      <use xlink:href="#ArialMT-65" x="331.697266"/>
      <use xlink:href="#ArialMT-6e" x="387.3125"/>
      <use xlink:href="#ArialMT-74" x="442.927734"/>
     </g>
    </g>
   </g>
   <g id="PathCollection_1">
    <defs>
     <path id="mbab7ff0b83" d="M 0 3.162278 
C 0.838646 3.162278 1.643056 2.82908 2.236068 2.236068 
C 2.82908 1.643056 3.162278 0.838646 3.162278 0 
C 3.162278 -0.838646 2.82908 -1.643056 2.236068 -2.236068 
C 1.643056 -2.82908 0.838646 -3.162278 0 -3.162278 
C -0.838646 -3.162278 -1.643056 -2.82908 -2.236068 -2.236068 
C -2.82908 -1.643056 -3.162278 -0.838646 -3.162278 0 
C -3.162278 0.838646 -2.82908 1.643056 -2.236068 2.236068 
C -1.643056 2.82908 -0.838646 3.162278 0 3.162278 
z
" style="stroke: #ffffff; stroke-width: 0.505964"/>
    </defs>
    <g clip-path="url(#p724d75d002)">
     <use xlink:href="#mbab7ff0b83" x="54.861653" y="119.229504" style="fill: #cccccc; stroke: #ffffff; stroke-width: 0.505964"/>
     <use xlink:href="#mbab7ff0b83" x="105.588926" y="126.015311" style="fill: #cccccc; stroke: #ffffff; stroke-width: 0.505964"/>
     <use xlink:href="#mbab7ff0b83" x="156.316199" y="123.33718" style="fill: #cccccc; stroke: #ffffff; stroke-width: 0.505964"/>
     <use xlink:href="#mbab7ff0b83" x="207.043472" y="128.270092" style="fill: #cccccc; stroke: #ffffff; stroke-width: 0.505964"/>
    </g>
   </g>
   <g id="PathCollection_2">
    <g clip-path="url(#p724d75d002)">
     <use xlink:href="#mbab7ff0b83" x="54.861653" y="91.193689" style="fill: #cccccc; stroke: #ffffff; stroke-width: 0.505964"/>
     <use xlink:href="#mbab7ff0b83" x="105.588926" y="90.161959" style="fill: #cccccc; stroke: #ffffff; stroke-width: 0.505964"/>
     <use xlink:href="#mbab7ff0b83" x="156.316199" y="84.18233" style="fill: #cccccc; stroke: #ffffff; stroke-width: 0.505964"/>
     <use xlink:href="#mbab7ff0b83" x="207.043472" y="89.563386" style="fill: #cccccc; stroke: #ffffff; stroke-width: 0.505964"/>
    </g>
   </g>
   <g id="PathCollection_3">
    <g clip-path="url(#p724d75d002)">
     <use xlink:href="#mbab7ff0b83" x="54.861653" y="122.03031" style="fill: #cccccc; stroke: #ffffff; stroke-width: 0.505964"/>
     <use xlink:href="#mbab7ff0b83" x="105.588926" y="155.171116" style="fill: #cccccc; stroke: #ffffff; stroke-width: 0.505964"/>
     <use xlink:href="#mbab7ff0b83" x="156.316199" y="148.049293" style="fill: #cccccc; stroke: #ffffff; stroke-width: 0.505964"/>
     <use xlink:href="#mbab7ff0b83" x="207.043472" y="125.515544" style="fill: #cccccc; stroke: #ffffff; stroke-width: 0.505964"/>
    </g>
   </g>
   <g id="PathCollection_4">
    <g clip-path="url(#p724d75d002)">
     <use xlink:href="#mbab7ff0b83" x="54.861653" y="98.741081" style="fill: #cccccc; stroke: #ffffff; stroke-width: 0.505964"/>
     <use xlink:href="#mbab7ff0b83" x="105.588926" y="99.654577" style="fill: #cccccc; stroke: #ffffff; stroke-width: 0.505964"/>
     <use xlink:href="#mbab7ff0b83" x="156.316199" y="90.079621" style="fill: #cccccc; stroke: #ffffff; stroke-width: 0.505964"/>
     <use xlink:href="#mbab7ff0b83" x="207.043472" y="76.503011" style="fill: #cccccc; stroke: #ffffff; stroke-width: 0.505964"/>
    </g>
   </g>
   <g id="PathCollection_5">
    <g clip-path="url(#p724d75d002)">
     <use xlink:href="#mbab7ff0b83" x="54.861653" y="126.808722" style="fill: #cccccc; stroke: #ffffff; stroke-width: 0.505964"/>
     <use xlink:href="#mbab7ff0b83" x="105.588926" y="119.193053" style="fill: #cccccc; stroke: #ffffff; stroke-width: 0.505964"/>
     <use xlink:href="#mbab7ff0b83" x="156.316199" y="114.360243" style="fill: #cccccc; stroke: #ffffff; stroke-width: 0.505964"/>
     <use xlink:href="#mbab7ff0b83" x="207.043472" y="127.554765" style="fill: #cccccc; stroke: #ffffff; stroke-width: 0.505964"/>
    </g>
   </g>
   <g id="PathCollection_6">
    <defs>
     <path id="m721145abaa" d="M 0 3.872983 
C 1.027127 3.872983 2.012324 3.464901 2.738613 2.738613 
C 3.464901 2.012324 3.872983 1.027127 3.872983 0 
C 3.872983 -1.027127 3.464901 -2.012324 2.738613 -2.738613 
C 2.012324 -3.464901 1.027127 -3.872983 0 -3.872983 
C -1.027127 -3.872983 -2.012324 -3.464901 -2.738613 -2.738613 
C -3.464901 -2.012324 -3.872983 -1.027127 -3.872983 0 
C -3.872983 1.027127 -3.464901 2.012324 -2.738613 2.738613 
C -2.012324 3.464901 -1.027127 3.872983 0 3.872983 
z
" style="stroke: #ffffff; stroke-width: 0.619677"/>
    </defs>
    <g clip-path="url(#p724d75d002)">
     <use xlink:href="#m721145abaa" x="54.861653" y="162.867273" style="fill: #005f79; stroke: #ffffff; stroke-width: 0.619677"/>
     <use xlink:href="#m721145abaa" x="105.588926" y="147.259028" style="fill: #005f79; stroke: #ffffff; stroke-width: 0.619677"/>
     <use xlink:href="#m721145abaa" x="156.316199" y="152.03559" style="fill: #005f79; stroke: #ffffff; stroke-width: 0.619677"/>
     <use xlink:href="#m721145abaa" x="207.043472" y="157.622584" style="fill: #005f79; stroke: #ffffff; stroke-width: 0.619677"/>
    </g>
   </g>
   <g id="PathCollection_7">
    <defs>
     <path id="m9340155f76" d="M 0 3.872983 
C 1.027127 3.872983 2.012324 3.464901 2.738613 2.738613 
C 3.464901 2.012324 3.872983 1.027127 3.872983 0 
C 3.872983 -1.027127 3.464901 -2.012324 2.738613 -2.738613 
C 2.012324 -3.464901 1.027127 -3.872983 0 -3.872983 
C -1.027127 -3.872983 -2.012324 -3.464901 -2.738613 -2.738613 
C -3.464901 -2.012324 -3.872983 -1.027127 -3.872983 0 
C -3.872983 1.027127 -3.464901 2.012324 -2.738613 2.738613 
C -2.012324 3.464901 -1.027127 3.872983 0 3.872983 
z
" style="stroke: #005f79; stroke-width: 0.619677"/>
    </defs>
    <g clip-path="url(#p724d75d002)"/>
   </g>
   <g id="PathCollection_8">
    <defs>
     <path id="m43a541563f" d="M 0 3.872983 
C 1.027127 3.872983 2.012324 3.464901 2.738613 2.738613 
C 3.464901 2.012324 3.872983 1.027127 3.872983 0 
C 3.872983 -1.027127 3.464901 -2.012324 2.738613 -2.738613 
C 2.012324 -3.464901 1.027127 -3.872983 0 -3.872983 
C -1.027127 -3.872983 -2.012324 -3.464901 -2.738613 -2.738613 
C -3.464901 -2.012324 -3.872983 -1.027127 -3.872983 0 
C -3.872983 1.027127 -3.464901 2.012324 -2.738613 2.738613 
C -2.012324 3.464901 -1.027127 3.872983 0 3.872983 
z
" style="stroke: #ffffff; stroke-width: 0.619677"/>
    </defs>
    <g clip-path="url(#p724d75d002)">
     <use xlink:href="#m43a541563f" x="54.861653" y="48.548609" style="fill: #efa020; stroke: #ffffff; stroke-width: 0.619677"/>
     <use xlink:href="#m43a541563f" x="105.588926" y="34.964783" style="fill: #efa020; stroke: #ffffff; stroke-width: 0.619677"/>
     <use xlink:href="#m43a541563f" x="156.316199" y="33.474177" style="fill: #efa020; stroke: #ffffff; stroke-width: 0.619677"/>
     <use xlink:href="#m43a541563f" x="207.043472" y="14.612727" style="fill: #efa020; stroke: #ffffff; stroke-width: 0.619677"/>
    </g>
   </g>
   <g id="PathCollection_9">
    <defs>
     <path id="mf8ba544ba8" d="M 0 3.872983 
C 1.027127 3.872983 2.012324 3.464901 2.738613 2.738613 
C 3.464901 2.012324 3.872983 1.027127 3.872983 0 
C 3.872983 -1.027127 3.464901 -2.012324 2.738613 -2.738613 
C 2.012324 -3.464901 1.027127 -3.872983 0 -3.872983 
C -1.027127 -3.872983 -2.012324 -3.464901 -2.738613 -2.738613 
C -3.464901 -2.012324 -3.872983 -1.027127 -3.872983 0 
C -3.872983 1.027127 -3.464901 2.012324 -2.738613 2.738613 
C -2.012324 3.464901 -1.027127 3.872983 0 3.872983 
z
" style="stroke: #efa020; stroke-width: 0.619677"/>
    </defs>
    <g clip-path="url(#p724d75d002)"/>
   </g>
   <g id="PathCollection_10">
    <defs>
     <path id="m4778304c95" d="M 0 3.872983 
C 1.027127 3.872983 2.012324 3.464901 2.738613 2.738613 
C 3.464901 2.012324 3.872983 1.027127 3.872983 0 
C 3.872983 -1.027127 3.464901 -2.012324 2.738613 -2.738613 
C 2.012324 -3.464901 1.027127 -3.872983 0 -3.872983 
C -1.027127 -3.872983 -2.012324 -3.464901 -2.738613 -2.738613 
C -3.464901 -2.012324 -3.872983 -1.027127 -3.872983 0 
C -3.872983 1.027127 -3.464901 2.012324 -2.738613 2.738613 
C -2.012324 3.464901 -1.027127 3.872983 0 3.872983 
z
" style="stroke: #ffffff; stroke-width: 0.619677"/>
    </defs>
    <g clip-path="url(#p724d75d002)">
     <use xlink:href="#m4778304c95" x="54.861653" y="110.328429" style="fill: #db4f51; stroke: #ffffff; stroke-width: 0.619677"/>
     <use xlink:href="#m4778304c95" x="105.588926" y="59.381032" style="fill: #db4f51; stroke: #ffffff; stroke-width: 0.619677"/>
     <use xlink:href="#m4778304c95" x="156.316199" y="53.139214" style="fill: #db4f51; stroke: #ffffff; stroke-width: 0.619677"/>
     <use xlink:href="#m4778304c95" x="207.043472" y="30.145294" style="fill: #db4f51; stroke: #ffffff; stroke-width: 0.619677"/>
    </g>
   </g>
   <g id="PathCollection_11">
    <defs>
     <path id="m5de45b9e7f" d="M 0 3.872983 
C 1.027127 3.872983 2.012324 3.464901 2.738613 2.738613 
C 3.464901 2.012324 3.872983 1.027127 3.872983 0 
C 3.872983 -1.027127 3.464901 -2.012324 2.738613 -2.738613 
C 2.012324 -3.464901 1.027127 -3.872983 0 -3.872983 
C -1.027127 -3.872983 -2.012324 -3.464901 -2.738613 -2.738613 
C -3.464901 -2.012324 -3.872983 -1.027127 -3.872983 0 
C -3.872983 1.027127 -3.464901 2.012324 -2.738613 2.738613 
C -2.012324 3.464901 -1.027127 3.872983 0 3.872983 
z
" style="stroke: #db4f51; stroke-width: 0.619677"/>
    </defs>
    <g clip-path="url(#p724d75d002)">
     <use xlink:href="#m5de45b9e7f" x="54.861653" y="110.328429" style="fill: #ffffff; stroke: #db4f51; stroke-width: 0.619677"/>
    </g>
   </g>
   <g id="PathCollection_12">
    <defs>
     <path id="mefe7e177b8" d="M 0 3.872983 
C 1.027127 3.872983 2.012324 3.464901 2.738613 2.738613 
C 3.464901 2.012324 3.872983 1.027127 3.872983 0 
C 3.872983 -1.027127 3.464901 -2.012324 2.738613 -2.738613 
C 2.012324 -3.464901 1.027127 -3.872983 0 -3.872983 
C -1.027127 -3.872983 -2.012324 -3.464901 -2.738613 -2.738613 
C -3.464901 -2.012324 -3.872983 -1.027127 -3.872983 0 
C -3.872983 1.027127 -3.464901 2.012324 -2.738613 2.738613 
C -2.012324 3.464901 -1.027127 3.872983 0 3.872983 
z
" style="stroke: #ffffff; stroke-width: 0.619677"/>
    </defs>
    <g clip-path="url(#p724d75d002)">
     <use xlink:href="#mefe7e177b8" x="54.861653" y="57.144199" style="fill: #003366; stroke: #ffffff; stroke-width: 0.619677"/>
     <use xlink:href="#mefe7e177b8" x="105.588926" y="65.618779" style="fill: #003366; stroke: #ffffff; stroke-width: 0.619677"/>
     <use xlink:href="#mefe7e177b8" x="156.316199" y="52.05105" style="fill: #003366; stroke: #ffffff; stroke-width: 0.619677"/>
     <use xlink:href="#mefe7e177b8" x="207.043472" y="84.103692" style="fill: #003366; stroke: #ffffff; stroke-width: 0.619677"/>
    </g>
   </g>
   <g id="PathCollection_13">
    <defs>
     <path id="m580da88ceb" d="M 0 3.872983 
C 1.027127 3.872983 2.012324 3.464901 2.738613 2.738613 
C 3.464901 2.012324 3.872983 1.027127 3.872983 0 
C 3.872983 -1.027127 3.464901 -2.012324 2.738613 -2.738613 
C 2.012324 -3.464901 1.027127 -3.872983 0 -3.872983 
C -1.027127 -3.872983 -2.012324 -3.464901 -2.738613 -2.738613 
C -3.464901 -2.012324 -3.872983 -1.027127 -3.872983 0 
C -3.872983 1.027127 -3.464901 2.012324 -2.738613 2.738613 
C -2.012324 3.464901 -1.027127 3.872983 0 3.872983 
z
" style="stroke: #003366; stroke-width: 0.619677"/>
    </defs>
    <g clip-path="url(#p724d75d002)"/>
   </g>
   <g id="PathCollection_14">
    <defs>
     <path id="m814b294fbd" d="M 0 3.872983 
C 1.027127 3.872983 2.012324 3.464901 2.738613 2.738613 
C 3.464901 2.012324 3.872983 1.027127 3.872983 0 
C 3.872983 -1.027127 3.464901 -2.012324 2.738613 -2.738613 
C 2.012324 -3.464901 1.027127 -3.872983 0 -3.872983 
C -1.027127 -3.872983 -2.012324 -3.464901 -2.738613 -2.738613 
C -3.464901 -2.012324 -3.872983 -1.027127 -3.872983 0 
C -3.872983 1.027127 -3.464901 2.012324 -2.738613 2.738613 
C -2.012324 3.464901 -1.027127 3.872983 0 3.872983 
z
" style="stroke: #ffffff; stroke-width: 0.619677"/>
    </defs>
    <g clip-path="url(#p724d75d002)">
     <use xlink:href="#m814b294fbd" x="54.861653" y="92.057596" style="fill: #996633; stroke: #ffffff; stroke-width: 0.619677"/>
     <use xlink:href="#m814b294fbd" x="105.588926" y="92.107184" style="fill: #996633; stroke: #ffffff; stroke-width: 0.619677"/>
     <use xlink:href="#m814b294fbd" x="156.316199" y="69.839509" style="fill: #996633; stroke: #ffffff; stroke-width: 0.619677"/>
     <use xlink:href="#m814b294fbd" x="207.043472" y="31.305805" style="fill: #996633; stroke: #ffffff; stroke-width: 0.619677"/>
    </g>
   </g>
   <g id="PathCollection_15">
    <defs>
     <path id="m1c508bf69c" d="M 0 3.872983 
C 1.027127 3.872983 2.012324 3.464901 2.738613 2.738613 
C 3.464901 2.012324 3.872983 1.027127 3.872983 0 
C 3.872983 -1.027127 3.464901 -2.012324 2.738613 -2.738613 
C 2.012324 -3.464901 1.027127 -3.872983 0 -3.872983 
C -1.027127 -3.872983 -2.012324 -3.464901 -2.738613 -2.738613 
C -3.464901 -2.012324 -3.872983 -1.027127 -3.872983 0 
C -3.872983 1.027127 -3.464901 2.012324 -2.738613 2.738613 
C -2.012324 3.464901 -1.027127 3.872983 0 3.872983 
z
" style="stroke: #996633; stroke-width: 0.619677"/>
    </defs>
    <g clip-path="url(#p724d75d002)">
     <use xlink:href="#m1c508bf69c" x="54.861653" y="92.057596" style="fill: #ffffff; stroke: #996633; stroke-width: 0.619677"/>
     <use xlink:href="#m1c508bf69c" x="105.588926" y="92.107184" style="fill: #ffffff; stroke: #996633; stroke-width: 0.619677"/>
    </g>
   </g>
   <g id="PathCollection_16">
    <defs>
     <path id="m4de1724a67" d="M 0 3.872983 
C 1.027127 3.872983 2.012324 3.464901 2.738613 2.738613 
C 3.464901 2.012324 3.872983 1.027127 3.872983 0 
C 3.872983 -1.027127 3.464901 -2.012324 2.738613 -2.738613 
C 2.012324 -3.464901 1.027127 -3.872983 0 -3.872983 
C -1.027127 -3.872983 -2.012324 -3.464901 -2.738613 -2.738613 
C -3.464901 -2.012324 -3.872983 -1.027127 -3.872983 0 
C -3.872983 1.027127 -3.464901 2.012324 -2.738613 2.738613 
C -2.012324 3.464901 -1.027127 3.872983 0 3.872983 
z
" style="stroke: #ffffff; stroke-width: 0.619677"/>
    </defs>
    <g clip-path="url(#p724d75d002)">
     <use xlink:href="#m4de1724a67" x="54.861653" y="44.762886" style="fill: #0099cc; stroke: #ffffff; stroke-width: 0.619677"/>
     <use xlink:href="#m4de1724a67" x="105.588926" y="44.212975" style="fill: #0099cc; stroke: #ffffff; stroke-width: 0.619677"/>
     <use xlink:href="#m4de1724a67" x="156.316199" y="35.158695" style="fill: #0099cc; stroke: #ffffff; stroke-width: 0.619677"/>
     <use xlink:href="#m4de1724a67" x="207.043472" y="39.766878" style="fill: #0099cc; stroke: #ffffff; stroke-width: 0.619677"/>
    </g>
   </g>
   <g id="PathCollection_17">
    <defs>
     <path id="m8f5b0d5a4d" d="M 0 3.872983 
C 1.027127 3.872983 2.012324 3.464901 2.738613 2.738613 
C 3.464901 2.012324 3.872983 1.027127 3.872983 0 
C 3.872983 -1.027127 3.464901 -2.012324 2.738613 -2.738613 
C 2.012324 -3.464901 1.027127 -3.872983 0 -3.872983 
C -1.027127 -3.872983 -2.012324 -3.464901 -2.738613 -2.738613 
C -3.464901 -2.012324 -3.872983 -1.027127 -3.872983 0 
C -3.872983 1.027127 -3.464901 2.012324 -2.738613 2.738613 
C -2.012324 3.464901 -1.027127 3.872983 0 3.872983 
z
" style="stroke: #0099cc; stroke-width: 0.619677"/>
    </defs>
    <g clip-path="url(#p724d75d002)"/>
   </g>
   <g id="PathCollection_18">
    <defs>
     <path id="m61f93cf807" d="M 0 3.872983 
C 1.027127 3.872983 2.012324 3.464901 2.738613 2.738613 
C 3.464901 2.012324 3.872983 1.027127 3.872983 0 
C 3.872983 -1.027127 3.464901 -2.012324 2.738613 -2.738613 
C 2.012324 -3.464901 1.027127 -3.872983 0 -3.872983 
C -1.027127 -3.872983 -2.012324 -3.464901 -2.738613 -2.738613 
C -3.464901 -2.012324 -3.872983 -1.027127 -3.872983 0 
C -3.872983 1.027127 -3.464901 2.012324 -2.738613 2.738613 
C -2.012324 3.464901 -1.027127 3.872983 0 3.872983 
z
" style="stroke: #ffffff; stroke-width: 0.619677"/>
    </defs>
    <g clip-path="url(#p724d75d002)">
     <use xlink:href="#m61f93cf807" x="54.861653" y="63.697793" style="fill: #c9659c; stroke: #ffffff; stroke-width: 0.619677"/>
     <use xlink:href="#m61f93cf807" x="105.588926" y="80.870099" style="fill: #c9659c; stroke: #ffffff; stroke-width: 0.619677"/>
     <use xlink:href="#m61f93cf807" x="156.316199" y="93.353179" style="fill: #c9659c; stroke: #ffffff; stroke-width: 0.619677"/>
     <use xlink:href="#m61f93cf807" x="207.043472" y="93.307847" style="fill: #c9659c; stroke: #ffffff; stroke-width: 0.619677"/>
    </g>
   </g>
   <g id="PathCollection_19">
    <defs>
     <path id="m0d6d699e6e" d="M 0 3.872983 
C 1.027127 3.872983 2.012324 3.464901 2.738613 2.738613 
C 3.464901 2.012324 3.872983 1.027127 3.872983 0 
C 3.872983 -1.027127 3.464901 -2.012324 2.738613 -2.738613 
C 2.012324 -3.464901 1.027127 -3.872983 0 -3.872983 
C -1.027127 -3.872983 -2.012324 -3.464901 -2.738613 -2.738613 
C -3.464901 -2.012324 -3.872983 -1.027127 -3.872983 0 
C -3.872983 1.027127 -3.464901 2.012324 -2.738613 2.738613 
C -2.012324 3.464901 -1.027127 3.872983 0 3.872983 
z
" style="stroke: #c9659c; stroke-width: 0.619677"/>
    </defs>
    <g clip-path="url(#p724d75d002)">
     <use xlink:href="#m0d6d699e6e" x="156.316199" y="93.353179" style="fill: #ffffff; stroke: #c9659c; stroke-width: 0.619677"/>
     <use xlink:href="#m0d6d699e6e" x="207.043472" y="93.307847" style="fill: #ffffff; stroke: #c9659c; stroke-width: 0.619677"/>
    </g>
   </g>
   <g id="PathCollection_20">
    <defs>
     <path id="m438c9a0722" d="M 0 3.872983 
C 1.027127 3.872983 2.012324 3.464901 2.738613 2.738613 
C 3.464901 2.012324 3.872983 1.027127 3.872983 0 
C 3.872983 -1.027127 3.464901 -2.012324 2.738613 -2.738613 
C 2.012324 -3.464901 1.027127 -3.872983 0 -3.872983 
C -1.027127 -3.872983 -2.012324 -3.464901 -2.738613 -2.738613 
C -3.464901 -2.012324 -3.872983 -1.027127 -3.872983 0 
C -3.872983 1.027127 -3.464901 2.012324 -2.738613 2.738613 
C -2.012324 3.464901 -1.027127 3.872983 0 3.872983 
z
" style="stroke: #ffffff; stroke-width: 0.619677"/>
    </defs>
    <g clip-path="url(#p724d75d002)">
     <use xlink:href="#m438c9a0722" x="54.861653" y="77.680174" style="fill: #92a84d; stroke: #ffffff; stroke-width: 0.619677"/>
     <use xlink:href="#m438c9a0722" x="105.588926" y="71.085134" style="fill: #92a84d; stroke: #ffffff; stroke-width: 0.619677"/>
     <use xlink:href="#m438c9a0722" x="156.316199" y="68.108549" style="fill: #92a84d; stroke: #ffffff; stroke-width: 0.619677"/>
     <use xlink:href="#m438c9a0722" x="207.043472" y="90.25762" style="fill: #92a84d; stroke: #ffffff; stroke-width: 0.619677"/>
    </g>
   </g>
   <g id="PathCollection_21">
    <defs>
     <path id="m72704a3d2a" d="M 0 3.872983 
C 1.027127 3.872983 2.012324 3.464901 2.738613 2.738613 
C 3.464901 2.012324 3.872983 1.027127 3.872983 0 
C 3.872983 -1.027127 3.464901 -2.012324 2.738613 -2.738613 
C 2.012324 -3.464901 1.027127 -3.872983 0 -3.872983 
C -1.027127 -3.872983 -2.012324 -3.464901 -2.738613 -2.738613 
C -3.464901 -2.012324 -3.872983 -1.027127 -3.872983 0 
C -3.872983 1.027127 -3.464901 2.012324 -2.738613 2.738613 
C -2.012324 3.464901 -1.027127 3.872983 0 3.872983 
z
" style="stroke: #92a84d; stroke-width: 0.619677"/>
    </defs>
    <g clip-path="url(#p724d75d002)">
     <use xlink:href="#m72704a3d2a" x="207.043472" y="90.25762" style="fill: #ffffff; stroke: #92a84d; stroke-width: 0.619677"/>
    </g>
   </g>
   <g id="line2d_23">
    <path d="M 54.861653 119.229504 
L 105.588926 126.015311 
L 156.316199 123.33718 
L 207.043472 128.270092 
" clip-path="url(#p724d75d002)" style="fill: none; stroke: #cccccc; stroke-width: 1.2; stroke-linecap: round"/>
   </g>
   <g id="line2d_24">
    <path d="M 54.861653 91.193689 
L 105.588926 90.161959 
L 156.316199 84.18233 
L 207.043472 89.563386 
" clip-path="url(#p724d75d002)" style="fill: none; stroke: #cccccc; stroke-width: 1.2; stroke-linecap: round"/>
   </g>
   <g id="line2d_25">
    <path d="M 54.861653 122.03031 
L 105.588926 155.171116 
L 156.316199 148.049293 
L 207.043472 125.515544 
" clip-path="url(#p724d75d002)" style="fill: none; stroke: #cccccc; stroke-width: 1.2; stroke-linecap: round"/>
   </g>
   <g id="line2d_26">
    <path d="M 54.861653 98.741081 
L 105.588926 99.654577 
L 156.316199 90.079621 
L 207.043472 76.503011 
" clip-path="url(#p724d75d002)" style="fill: none; stroke: #cccccc; stroke-width: 1.2; stroke-linecap: round"/>
   </g>
   <g id="line2d_27">
    <path d="M 54.861653 126.808722 
L 105.588926 119.193053 
L 156.316199 114.360243 
L 207.043472 127.554765 
" clip-path="url(#p724d75d002)" style="fill: none; stroke: #cccccc; stroke-width: 1.2; stroke-linecap: round"/>
   </g>
   <g id="line2d_28">
    <path d="M 54.861653 162.867273 
L 105.588926 147.259028 
L 156.316199 152.03559 
L 207.043472 157.622584 
" clip-path="url(#p724d75d002)" style="fill: none; stroke: #005f79; stroke-width: 1.2; stroke-linecap: round"/>
   </g>
   <g id="line2d_29">
    <path d="M 54.861653 48.548609 
L 105.588926 34.964783 
L 156.316199 33.474177 
L 207.043472 14.612727 
" clip-path="url(#p724d75d002)" style="fill: none; stroke: #efa020; stroke-width: 1.2; stroke-linecap: round"/>
   </g>
   <g id="line2d_30">
    <path d="M 54.861653 110.328429 
L 105.588926 59.381032 
L 156.316199 53.139214 
L 207.043472 30.145294 
" clip-path="url(#p724d75d002)" style="fill: none; stroke: #db4f51; stroke-width: 1.2; stroke-linecap: round"/>
   </g>
   <g id="line2d_31">
    <path d="M 54.861653 57.144199 
L 105.588926 65.618779 
L 156.316199 52.05105 
L 207.043472 84.103692 
" clip-path="url(#p724d75d002)" style="fill: none; stroke: #003366; stroke-width: 1.2; stroke-linecap: round"/>
   </g>
   <g id="line2d_32">
    <path d="M 54.861653 92.057596 
L 105.588926 92.107184 
L 156.316199 69.839509 
L 207.043472 31.305805 
" clip-path="url(#p724d75d002)" style="fill: none; stroke: #996633; stroke-width: 1.2; stroke-linecap: round"/>
   </g>
   <g id="line2d_33">
    <path d="M 54.861653 44.762886 
L 105.588926 44.212975 
L 156.316199 35.158695 
L 207.043472 39.766878 
" clip-path="url(#p724d75d002)" style="fill: none; stroke: #0099cc; stroke-width: 1.2; stroke-linecap: round"/>
   </g>
   <g id="line2d_34">
    <path d="M 54.861653 63.697793 
L 105.588926 80.870099 
L 156.316199 93.353179 
L 207.043472 93.307847 
" clip-path="url(#p724d75d002)" style="fill: none; stroke: #c9659c; stroke-width: 1.2; stroke-linecap: round"/>
   </g>
   <g id="line2d_35">
    <path d="M 54.861653 77.680174 
L 105.588926 71.085134 
L 156.316199 68.108549 
L 207.043472 90.25762 
" clip-path="url(#p724d75d002)" style="fill: none; stroke: #92a84d; stroke-width: 1.2; stroke-linecap: round"/>
   </g>
   <g id="patch_3">
    <path d="M 47.252563 170.28 
L 214.652563 170.28 
" style="fill: none; stroke: #262626; stroke-linejoin: miter; stroke-linecap: square"/>
   </g>
   <g id="legend_1">
    <g id="patch_4">
     <path d="M 242.642562 291.040031 
L 386.372562 291.040031 
Q 389.252562 291.040031 389.252562 288.160031 
L 389.252562 10.08 
Q 389.252562 7.2 386.372562 7.2 
L 242.642562 7.2 
Q 239.762563 7.2 239.762563 10.08 
L 239.762563 288.160031 
Q 239.762563 291.040031 242.642562 291.040031 
z
" style="fill: #ffffff; opacity: 0.8; stroke: #cccccc; stroke-width: 0.8; stroke-linejoin: miter"/>
    </g>
    <g id="text_16">
     <!-- Feature Group -->
     <g style="fill: #262626" transform="translate(291.747719 18.055781)scale(0.07 -0.07)">
      <defs>
       <path id="ArialMT-46" d="M 525 0 
L 525 4581 
L 3616 4581 
L 3616 4041 
L 1131 4041 
L 1131 2622 
L 3281 2622 
L 3281 2081 
L 1131 2081 
L 1131 0 
L 525 0 
z
" transform="scale(0.015625)"/>
       <path id="ArialMT-75" d="M 2597 0 
L 2597 488 
Q 2209 -75 1544 -75 
Q 1250 -75 995 37 
Q 741 150 617 320 
Q 494 491 444 738 
Q 409 903 409 1263 
L 409 3319 
L 972 3319 
L 972 1478 
Q 972 1038 1006 884 
Q 1059 663 1231 536 
Q 1403 409 1656 409 
Q 1909 409 2131 539 
Q 2353 669 2445 892 
Q 2538 1116 2538 1541 
L 2538 3319 
L 3100 3319 
L 3100 0 
L 2597 0 
z
" transform="scale(0.015625)"/>
       <path id="ArialMT-47" d="M 2638 1797 
L 2638 2334 
L 4578 2338 
L 4578 638 
Q 4131 281 3656 101 
Q 3181 -78 2681 -78 
Q 2006 -78 1454 211 
Q 903 500 622 1047 
Q 341 1594 341 2269 
Q 341 2938 620 3517 
Q 900 4097 1425 4378 
Q 1950 4659 2634 4659 
Q 3131 4659 3532 4498 
Q 3934 4338 4162 4050 
Q 4391 3763 4509 3300 
L 3963 3150 
Q 3859 3500 3706 3700 
Q 3553 3900 3268 4020 
Q 2984 4141 2638 4141 
Q 2222 4141 1919 4014 
Q 1616 3888 1430 3681 
Q 1244 3475 1141 3228 
Q 966 2803 966 2306 
Q 966 1694 1177 1281 
Q 1388 869 1791 669 
Q 2194 469 2647 469 
Q 3041 469 3416 620 
Q 3791 772 3984 944 
L 3984 1797 
L 2638 1797 
z
" transform="scale(0.015625)"/>
       <path id="ArialMT-70" d="M 422 -1272 
L 422 3319 
L 934 3319 
L 934 2888 
Q 1116 3141 1344 3267 
Q 1572 3394 1897 3394 
Q 2322 3394 2647 3175 
Q 2972 2956 3137 2557 
Q 3303 2159 3303 1684 
Q 3303 1175 3120 767 
Q 2938 359 2589 142 
Q 2241 -75 1856 -75 
Q 1575 -75 1351 44 
Q 1128 163 984 344 
L 984 -1272 
L 422 -1272 
z
M 931 1641 
Q 931 1000 1190 694 
Q 1450 388 1819 388 
Q 2194 388 2461 705 
Q 2728 1022 2728 1688 
Q 2728 2322 2467 2637 
Q 2206 2953 1844 2953 
Q 1484 2953 1207 2617 
Q 931 2281 931 1641 
z
" transform="scale(0.015625)"/>
      </defs>
      <use xlink:href="#ArialMT-46"/>
      <use xlink:href="#ArialMT-65" x="61.083984"/>
      <use xlink:href="#ArialMT-61" x="116.699219"/>
      <use xlink:href="#ArialMT-74" x="172.314453"/>
      <use xlink:href="#ArialMT-75" x="200.097656"/>
      <use xlink:href="#ArialMT-72" x="255.712891"/>
      <use xlink:href="#ArialMT-65" x="289.013672"/>
      <use xlink:href="#ArialMT-20" x="344.628906"/>
      <use xlink:href="#ArialMT-47" x="372.412109"/>
      <use xlink:href="#ArialMT-72" x="450.195312"/>
      <use xlink:href="#ArialMT-6f" x="483.496094"/>
      <use xlink:href="#ArialMT-75" x="539.111328"/>
      <use xlink:href="#ArialMT-70" x="594.726562"/>
     </g>
    </g>
    <g id="line2d_36">
     <path d="M 245.522562 31.914281 
L 259.922562 31.914281 
L 274.322563 31.914281 
" style="fill: none; stroke: #cccccc; stroke-width: 1.2; stroke-linecap: round"/>
    </g>
    <g id="text_17">
     <!-- Other -->
     <g style="fill: #262626" transform="translate(285.842562 36.954281)scale(0.144 -0.144)">
      <defs>
       <path id="ArialMT-4f" d="M 309 2231 
Q 309 3372 921 4017 
Q 1534 4663 2503 4663 
Q 3138 4663 3647 4359 
Q 4156 4056 4423 3514 
Q 4691 2972 4691 2284 
Q 4691 1588 4409 1038 
Q 4128 488 3612 205 
Q 3097 -78 2500 -78 
Q 1853 -78 1343 234 
Q 834 547 571 1087 
Q 309 1628 309 2231 
z
M 934 2222 
Q 934 1394 1379 917 
Q 1825 441 2497 441 
Q 3181 441 3623 922 
Q 4066 1403 4066 2288 
Q 4066 2847 3877 3264 
Q 3688 3681 3323 3911 
Q 2959 4141 2506 4141 
Q 1863 4141 1398 3698 
Q 934 3256 934 2222 
z
" transform="scale(0.015625)"/>
       <path id="ArialMT-68" d="M 422 0 
L 422 4581 
L 984 4581 
L 984 2938 
Q 1378 3394 1978 3394 
Q 2347 3394 2619 3248 
Q 2891 3103 3008 2847 
Q 3125 2591 3125 2103 
L 3125 0 
L 2563 0 
L 2563 2103 
Q 2563 2525 2380 2717 
Q 2197 2909 1863 2909 
Q 1613 2909 1392 2779 
Q 1172 2650 1078 2428 
Q 984 2206 984 1816 
L 984 0 
L 422 0 
z
" transform="scale(0.015625)"/>
      </defs>
      <use xlink:href="#ArialMT-4f"/>
      <use xlink:href="#ArialMT-74" x="77.783203"/>
      <use xlink:href="#ArialMT-68" x="105.566406"/>
      <use xlink:href="#ArialMT-65" x="161.181641"/>
      <use xlink:href="#ArialMT-72" x="216.796875"/>
     </g>
    </g>
    <g id="line2d_37">
     <path d="M 245.522562 52.283531 
L 259.922562 52.283531 
L 274.322563 52.283531 
" style="fill: none; stroke: #cccccc; stroke-width: 1.2; stroke-linecap: round"/>
    </g>
    <g id="text_18">
     <!-- Other -->
     <g style="fill: #262626" transform="translate(285.842562 57.323531)scale(0.144 -0.144)">
      <use xlink:href="#ArialMT-4f"/>
      <use xlink:href="#ArialMT-74" x="77.783203"/>
      <use xlink:href="#ArialMT-68" x="105.566406"/>
      <use xlink:href="#ArialMT-65" x="161.181641"/>
      <use xlink:href="#ArialMT-72" x="216.796875"/>
     </g>
    </g>
    <g id="line2d_38">
     <path d="M 245.522562 72.652781 
L 259.922562 72.652781 
L 274.322563 72.652781 
" style="fill: none; stroke: #cccccc; stroke-width: 1.2; stroke-linecap: round"/>
    </g>
    <g id="text_19">
     <!-- Other -->
     <g style="fill: #262626" transform="translate(285.842562 77.692781)scale(0.144 -0.144)">
      <use xlink:href="#ArialMT-4f"/>
      <use xlink:href="#ArialMT-74" x="77.783203"/>
      <use xlink:href="#ArialMT-68" x="105.566406"/>
      <use xlink:href="#ArialMT-65" x="161.181641"/>
      <use xlink:href="#ArialMT-72" x="216.796875"/>
     </g>
    </g>
    <g id="line2d_39">
     <path d="M 245.522562 93.022031 
L 259.922562 93.022031 
L 274.322563 93.022031 
" style="fill: none; stroke: #cccccc; stroke-width: 1.2; stroke-linecap: round"/>
    </g>
    <g id="text_20">
     <!-- Other -->
     <g style="fill: #262626" transform="translate(285.842562 98.062031)scale(0.144 -0.144)">
      <use xlink:href="#ArialMT-4f"/>
      <use xlink:href="#ArialMT-74" x="77.783203"/>
      <use xlink:href="#ArialMT-68" x="105.566406"/>
      <use xlink:href="#ArialMT-65" x="161.181641"/>
      <use xlink:href="#ArialMT-72" x="216.796875"/>
     </g>
    </g>
    <g id="line2d_40">
     <path d="M 245.522562 113.391281 
L 259.922562 113.391281 
L 274.322563 113.391281 
" style="fill: none; stroke: #cccccc; stroke-width: 1.2; stroke-linecap: round"/>
    </g>
    <g id="text_21">
     <!-- Other -->
     <g style="fill: #262626" transform="translate(285.842562 118.431281)scale(0.144 -0.144)">
      <use xlink:href="#ArialMT-4f"/>
      <use xlink:href="#ArialMT-74" x="77.783203"/>
      <use xlink:href="#ArialMT-68" x="105.566406"/>
      <use xlink:href="#ArialMT-65" x="161.181641"/>
      <use xlink:href="#ArialMT-72" x="216.796875"/>
     </g>
    </g>
    <g id="line2d_41">
     <path d="M 245.522562 133.936031 
L 259.922562 133.936031 
L 274.322563 133.936031 
" style="fill: none; stroke: #005f79; stroke-width: 1.2; stroke-linecap: round"/>
    </g>
    <g id="text_22">
     <!-- #Grocery -->
     <g style="fill: #262626" transform="translate(285.842562 138.976031)scale(0.144 -0.144)">
      <defs>
       <path id="ArialMT-23" d="M 322 -78 
L 594 1253 
L 66 1253 
L 66 1719 
L 688 1719 
L 919 2853 
L 66 2853 
L 66 3319 
L 1013 3319 
L 1284 4659 
L 1753 4659 
L 1481 3319 
L 2466 3319 
L 2738 4659 
L 3209 4659 
L 2938 3319 
L 3478 3319 
L 3478 2853 
L 2844 2853 
L 2609 1719 
L 3478 1719 
L 3478 1253 
L 2516 1253 
L 2244 -78 
L 1775 -78 
L 2044 1253 
L 1063 1253 
L 791 -78 
L 322 -78 
z
M 1156 1719 
L 2138 1719 
L 2372 2853 
L 1388 2853 
L 1156 1719 
z
" transform="scale(0.015625)"/>
      </defs>
      <use xlink:href="#ArialMT-23"/>
      <use xlink:href="#ArialMT-47" x="55.615234"/>
      <use xlink:href="#ArialMT-72" x="133.398438"/>
      <use xlink:href="#ArialMT-6f" x="166.699219"/>
      <use xlink:href="#ArialMT-63" x="222.314453"/>
      <use xlink:href="#ArialMT-65" x="272.314453"/>
      <use xlink:href="#ArialMT-72" x="327.929688"/>
      <use xlink:href="#ArialMT-79" x="361.230469"/>
     </g>
    </g>
    <g id="line2d_42">
     <path d="M 245.522562 154.474031 
L 259.922562 154.474031 
L 274.322563 154.474031 
" style="fill: none; stroke: #efa020; stroke-width: 1.2; stroke-linecap: round"/>
    </g>
    <g id="text_23">
     <!-- #Food -->
     <g style="fill: #262626" transform="translate(285.842562 159.514031)scale(0.144 -0.144)">
      <defs>
       <path id="ArialMT-64" d="M 2575 0 
L 2575 419 
Q 2259 -75 1647 -75 
Q 1250 -75 917 144 
Q 584 363 401 755 
Q 219 1147 219 1656 
Q 219 2153 384 2558 
Q 550 2963 881 3178 
Q 1213 3394 1622 3394 
Q 1922 3394 2156 3267 
Q 2391 3141 2538 2938 
L 2538 4581 
L 3097 4581 
L 3097 0 
L 2575 0 
z
M 797 1656 
Q 797 1019 1065 703 
Q 1334 388 1700 388 
Q 2069 388 2326 689 
Q 2584 991 2584 1609 
Q 2584 2291 2321 2609 
Q 2059 2928 1675 2928 
Q 1300 2928 1048 2622 
Q 797 2316 797 1656 
z
" transform="scale(0.015625)"/>
      </defs>
      <use xlink:href="#ArialMT-23"/>
      <use xlink:href="#ArialMT-46" x="55.615234"/>
      <use xlink:href="#ArialMT-6f" x="116.699219"/>
      <use xlink:href="#ArialMT-6f" x="172.314453"/>
      <use xlink:href="#ArialMT-64" x="227.929688"/>
     </g>
    </g>
    <g id="line2d_43">
     <path d="M 245.522562 175.018781 
L 259.922562 175.018781 
L 274.322563 175.018781 
" style="fill: none; stroke: #db4f51; stroke-width: 1.2; stroke-linecap: round"/>
    </g>
    <g id="text_24">
     <!-- #Shopping -->
     <g style="fill: #262626" transform="translate(285.842562 180.058781)scale(0.144 -0.144)">
      <defs>
       <path id="ArialMT-53" d="M 288 1472 
L 859 1522 
Q 900 1178 1048 958 
Q 1197 738 1509 602 
Q 1822 466 2213 466 
Q 2559 466 2825 569 
Q 3091 672 3220 851 
Q 3350 1031 3350 1244 
Q 3350 1459 3225 1620 
Q 3100 1781 2813 1891 
Q 2628 1963 1997 2114 
Q 1366 2266 1113 2400 
Q 784 2572 623 2826 
Q 463 3081 463 3397 
Q 463 3744 659 4045 
Q 856 4347 1234 4503 
Q 1613 4659 2075 4659 
Q 2584 4659 2973 4495 
Q 3363 4331 3572 4012 
Q 3781 3694 3797 3291 
L 3216 3247 
Q 3169 3681 2898 3903 
Q 2628 4125 2100 4125 
Q 1550 4125 1298 3923 
Q 1047 3722 1047 3438 
Q 1047 3191 1225 3031 
Q 1400 2872 2139 2705 
Q 2878 2538 3153 2413 
Q 3553 2228 3743 1945 
Q 3934 1663 3934 1294 
Q 3934 928 3725 604 
Q 3516 281 3123 101 
Q 2731 -78 2241 -78 
Q 1619 -78 1198 103 
Q 778 284 539 648 
Q 300 1013 288 1472 
z
" transform="scale(0.015625)"/>
       <path id="ArialMT-67" d="M 319 -275 
L 866 -356 
Q 900 -609 1056 -725 
Q 1266 -881 1628 -881 
Q 2019 -881 2231 -725 
Q 2444 -569 2519 -288 
Q 2563 -116 2559 434 
Q 2191 0 1641 0 
Q 956 0 581 494 
Q 206 988 206 1678 
Q 206 2153 378 2554 
Q 550 2956 876 3175 
Q 1203 3394 1644 3394 
Q 2231 3394 2613 2919 
L 2613 3319 
L 3131 3319 
L 3131 450 
Q 3131 -325 2973 -648 
Q 2816 -972 2473 -1159 
Q 2131 -1347 1631 -1347 
Q 1038 -1347 672 -1080 
Q 306 -813 319 -275 
z
M 784 1719 
Q 784 1066 1043 766 
Q 1303 466 1694 466 
Q 2081 466 2343 764 
Q 2606 1063 2606 1700 
Q 2606 2309 2336 2618 
Q 2066 2928 1684 2928 
Q 1309 2928 1046 2623 
Q 784 2319 784 1719 
z
" transform="scale(0.015625)"/>
      </defs>
      <use xlink:href="#ArialMT-23"/>
      <use xlink:href="#ArialMT-53" x="55.615234"/>
      <use xlink:href="#ArialMT-68" x="122.314453"/>
      <use xlink:href="#ArialMT-6f" x="177.929688"/>
      <use xlink:href="#ArialMT-70" x="233.544922"/>
      <use xlink:href="#ArialMT-70" x="289.160156"/>
      <use xlink:href="#ArialMT-69" x="344.775391"/>
      <use xlink:href="#ArialMT-6e" x="366.992188"/>
      <use xlink:href="#ArialMT-67" x="422.607422"/>
     </g>
    </g>
    <g id="line2d_44">
     <path d="M 245.522562 195.556781 
L 259.922562 195.556781 
L 274.322563 195.556781 
" style="fill: none; stroke: #003366; stroke-width: 1.2; stroke-linecap: round"/>
    </g>
    <g id="text_25">
     <!-- #Health -->
     <g style="fill: #262626" transform="translate(285.842562 200.596781)scale(0.144 -0.144)">
      <defs>
       <path id="ArialMT-48" d="M 513 0 
L 513 4581 
L 1119 4581 
L 1119 2700 
L 3500 2700 
L 3500 4581 
L 4106 4581 
L 4106 0 
L 3500 0 
L 3500 2159 
L 1119 2159 
L 1119 0 
L 513 0 
z
" transform="scale(0.015625)"/>
       <path id="ArialMT-6c" d="M 409 0 
L 409 4581 
L 972 4581 
L 972 0 
L 409 0 
z
" transform="scale(0.015625)"/>
      </defs>
      <use xlink:href="#ArialMT-23"/>
      <use xlink:href="#ArialMT-48" x="55.615234"/>
      <use xlink:href="#ArialMT-65" x="127.832031"/>
      <use xlink:href="#ArialMT-61" x="183.447266"/>
      <use xlink:href="#ArialMT-6c" x="239.0625"/>
      <use xlink:href="#ArialMT-74" x="261.279297"/>
      <use xlink:href="#ArialMT-68" x="289.0625"/>
     </g>
    </g>
    <g id="line2d_45">
     <path d="M 245.522562 215.926031 
L 259.922562 215.926031 
L 274.322563 215.926031 
" style="fill: none; stroke: #996633; stroke-width: 1.2; stroke-linecap: round"/>
    </g>
    <g id="text_26">
     <!-- #Entertainment -->
     <g style="fill: #262626" transform="translate(285.842562 220.966031)scale(0.144 -0.144)">
      <defs>
       <path id="ArialMT-45" d="M 506 0 
L 506 4581 
L 3819 4581 
L 3819 4041 
L 1113 4041 
L 1113 2638 
L 3647 2638 
L 3647 2100 
L 1113 2100 
L 1113 541 
L 3925 541 
L 3925 0 
L 506 0 
z
" transform="scale(0.015625)"/>
      </defs>
      <use xlink:href="#ArialMT-23"/>
      <use xlink:href="#ArialMT-45" x="55.615234"/>
      <use xlink:href="#ArialMT-6e" x="122.314453"/>
      <use xlink:href="#ArialMT-74" x="177.929688"/>
      <use xlink:href="#ArialMT-65" x="205.712891"/>
      <use xlink:href="#ArialMT-72" x="261.328125"/>
      <use xlink:href="#ArialMT-74" x="294.628906"/>
      <use xlink:href="#ArialMT-61" x="322.412109"/>
      <use xlink:href="#ArialMT-69" x="378.027344"/>
      <use xlink:href="#ArialMT-6e" x="400.244141"/>
      <use xlink:href="#ArialMT-6d" x="455.859375"/>
      <use xlink:href="#ArialMT-65" x="539.160156"/>
      <use xlink:href="#ArialMT-6e" x="594.775391"/>
      <use xlink:href="#ArialMT-74" x="650.390625"/>
     </g>
    </g>
    <g id="line2d_46">
     <path d="M 245.522562 236.295281 
L 259.922562 236.295281 
L 274.322563 236.295281 
" style="fill: none; stroke: #0099cc; stroke-width: 1.2; stroke-linecap: round"/>
    </g>
    <g id="text_27">
     <!-- #Coffee / Tea -->
     <g style="fill: #262626" transform="translate(285.842562 241.335281)scale(0.144 -0.144)">
      <defs>
       <path id="ArialMT-2f" d="M 0 -78 
L 1328 4659 
L 1778 4659 
L 453 -78 
L 0 -78 
z
" transform="scale(0.015625)"/>
      </defs>
      <use xlink:href="#ArialMT-23"/>
      <use xlink:href="#ArialMT-43" x="55.615234"/>
      <use xlink:href="#ArialMT-6f" x="127.832031"/>
      <use xlink:href="#ArialMT-66" x="183.447266"/>
      <use xlink:href="#ArialMT-66" x="209.480469"/>
      <use xlink:href="#ArialMT-65" x="237.263672"/>
      <use xlink:href="#ArialMT-65" x="292.878906"/>
      <use xlink:href="#ArialMT-20" x="348.494141"/>
      <use xlink:href="#ArialMT-2f" x="376.277344"/>
      <use xlink:href="#ArialMT-20" x="404.060547"/>
      <use xlink:href="#ArialMT-54" x="430.09375"/>
      <use xlink:href="#ArialMT-65" x="480.052734"/>
      <use xlink:href="#ArialMT-61" x="535.667969"/>
     </g>
    </g>
    <g id="line2d_47">
     <path d="M 245.522562 256.664531 
L 259.922562 256.664531 
L 274.322563 256.664531 
" style="fill: none; stroke: #c9659c; stroke-width: 1.2; stroke-linecap: round"/>
    </g>
    <g id="text_28">
     <!-- #Work -->
     <g style="fill: #262626" transform="translate(285.842562 261.704531)scale(0.144 -0.144)">
      <defs>
       <path id="ArialMT-57" d="M 1294 0 
L 78 4581 
L 700 4581 
L 1397 1578 
Q 1509 1106 1591 641 
Q 1766 1375 1797 1488 
L 2669 4581 
L 3400 4581 
L 4056 2263 
Q 4303 1400 4413 641 
Q 4500 1075 4641 1638 
L 5359 4581 
L 5969 4581 
L 4713 0 
L 4128 0 
L 3163 3491 
Q 3041 3928 3019 4028 
Q 2947 3713 2884 3491 
L 1913 0 
L 1294 0 
z
" transform="scale(0.015625)"/>
       <path id="ArialMT-6b" d="M 425 0 
L 425 4581 
L 988 4581 
L 988 1969 
L 2319 3319 
L 3047 3319 
L 1778 2088 
L 3175 0 
L 2481 0 
L 1384 1697 
L 988 1316 
L 988 0 
L 425 0 
z
" transform="scale(0.015625)"/>
      </defs>
      <use xlink:href="#ArialMT-23"/>
      <use xlink:href="#ArialMT-57" x="55.615234"/>
      <use xlink:href="#ArialMT-6f" x="148.25"/>
      <use xlink:href="#ArialMT-72" x="203.865234"/>
      <use xlink:href="#ArialMT-6b" x="237.166016"/>
     </g>
    </g>
    <g id="line2d_48">
     <path d="M 245.522562 277.209281 
L 259.922562 277.209281 
L 274.322563 277.209281 
" style="fill: none; stroke: #92a84d; stroke-width: 1.2; stroke-linecap: round"/>
    </g>
    <g id="text_29">
     <!-- #College -->
     <g style="fill: #262626" transform="translate(285.842562 282.249281)scale(0.144 -0.144)">
      <use xlink:href="#ArialMT-23"/>
      <use xlink:href="#ArialMT-43" x="55.615234"/>
      <use xlink:href="#ArialMT-6f" x="127.832031"/>
      <use xlink:href="#ArialMT-6c" x="183.447266"/>
      <use xlink:href="#ArialMT-6c" x="205.664062"/>
      <use xlink:href="#ArialMT-65" x="227.880859"/>
      <use xlink:href="#ArialMT-67" x="283.496094"/>
      <use xlink:href="#ArialMT-65" x="339.111328"/>
     </g>
    </g>
   </g>
  </g>
 </g>
 <defs>
  <clipPath id="p724d75d002">
   <rect x="47.252563" y="7.2" width="167.4" height="163.08"/>
  </clipPath>
 </defs>
</svg>
